<?xml version="1.0" encoding="utf-8"?>
<!-- Generator: Adobe Illustrator 23.0.5, SVG Export Plug-In . SVG Version: 6.00 Build 0)  -->
<svg version="1.1" id="Layer_1" xmlns="http://www.w3.org/2000/svg" xmlns:xlink="http://www.w3.org/1999/xlink" x="0px" y="0px"
	 viewBox="0 0 228.7 39.1" style="enable-background:new 0 0 228.7 39.1;" xml:space="preserve">
<style type="text/css">
	.st0{fill:#FED136;}
	.st1{font-family:'Mont-HeavyDEMO';}
	.st2{font-size:30.1954px;}
	.st3{letter-spacing:4;}
	.st4{fill:#FFFFFF;}
	.st5{font-size:8.6752px;}
	.st6{letter-spacing:3;}
	.st7{letter-spacing:2;}
	.st8{letter-spacing:1;}
</style>
<image style="overflow:visible;" width="2084" height="2084" xlink:href="../../../../../Users/Nadhif Rafifaiz K/OneDrive/Documents/Skripsi/Fadlan_s Source/Logo.png"  transform="matrix(0.1097 0 0 0.1097 -276.5267 -45.172)">
</image>
<path class="st0" d="M23.1-42.9c0.1,0.4,0.1,0.7,0.2,0.8c0,0.2,0.1,0.4,0,0.6c0,0.8-0.2,1.5-0.5,2.2c-0.3,0.6-0.8,1.1-1.4,1.4
	c-0.5-0.6-1.1-1.2-1.7-1.6c-0.7-0.5-1.5-0.8-2.3-1.1c-0.8-0.3-1.7-0.5-2.5-0.7c-0.8-0.1-1.7-0.2-2.6-0.2c-0.8,0-1.6,0.1-2.3,0.2
	c-0.7,0.1-1.3,0.3-1.9,0.5c-0.5,0.2-0.9,0.5-1.3,0.8c-0.3,0.3-0.5,0.7-0.5,1.1c0.1,0.6,0.5,1.2,1,1.6c0.6,0.6,1.3,1.1,2.1,1.6
	c0.8,0.5,1.7,1,2.7,1.5s2,1,3,1.4c1.2,0.6,2.2,1.1,3.1,1.6c0.8,0.4,1.5,1,2.2,1.6c0.6,0.6,1,1.3,1.3,2c0.3,0.8,0.4,1.7,0.3,2.6
	c0,1.2-0.2,2.3-0.6,3.4c-0.4,1-1,2-1.8,2.7c-0.8,0.8-1.7,1.4-2.8,1.8c-1.2,0.4-2.4,0.7-3.6,0.7c-1.4,0-2.8-0.2-4.2-0.6
	c-1.5-0.4-2.9-0.9-4.3-1.7C3.5-19.2,2.3-20,1.4-21C0.5-21.7,0-22.8,0-23.9c0-0.6,0.2-1.2,0.4-1.8c0.3-0.9,0.8-1.6,1.5-2.3
	C2-27.1,2.4-26.2,3-25.5c0.8,1.1,1.9,2,3.1,2.7c1.3,0.7,2.6,1.3,4,1.7c1.3,0.3,2.6,0.5,3.9,0.5c1.1,0,2.2-0.1,3.2-0.5
	c0.7-0.3,1.4-0.7,1.9-1.2c0.4-0.4,0.8-0.9,1-1.4c0.2-0.4,0.3-0.7,0.3-1.1c0-0.5-0.3-1-0.6-1.4c-0.5-0.5-1.1-0.9-1.7-1.3
	c-0.7-0.4-1.5-0.8-2.4-1.3s-1.9-0.9-2.9-1.3c-1.5-0.7-2.8-1.3-3.8-1.9c-0.9-0.5-1.8-1.1-2.7-1.8c-0.6-0.5-1.2-1.2-1.5-1.9
	c-0.3-0.7-0.5-1.5-0.5-2.3c0-1.3,0.4-2.7,1.2-3.8c0.9-1.2,2.1-2.2,3.5-2.7c0.8-0.3,1.6-0.6,2.4-0.7c0.8-0.1,1.7-0.2,2.5-0.2
	c1.5,0,3.1,0.2,4.6,0.6C20.1-44.1,21.6-43.5,23.1-42.9z"/>
<path class="st0" d="M25.9-32.6c-0.2-0.3-0.3-0.6-0.3-0.9c-0.1-0.4-0.1-0.8-0.1-1.2c0.6,0.1,1.2,0.1,1.8,0.1h1.6
	c0.4-0.7,0.7-1.4,1.1-2.1c0.4-0.7,0.8-1.3,1.2-1.9c0.3-0.5,0.7-1,1.1-1.5c0.2-0.3,0.5-0.5,0.8-0.8c0.3,0,0.6,0,0.9,0.1
	c0.4,0.1,0.7,0.2,1.1,0.3c0.4,0.1,0.7,0.3,1,0.4c0.2,0.1,0.5,0.2,0.6,0.4c-0.7,0.9-1.3,1.7-1.8,2.5c-0.5,0.8-1.1,1.6-1.7,2.6h1.4
	c0.5,0,1,0,1.5-0.1c0.1,0.1,0.2,0.3,0.3,0.4c0.1,0.2,0.1,0.4,0.1,0.5c-1.4,0.5-2.8,0.7-4.2,0.7c-0.6,1.1-1.1,2.3-1.6,3.4
	s-0.9,2.2-1.2,3.3c-0.3,1-0.5,1.9-0.7,2.9c-0.2,0.8-0.3,1.7-0.3,2.5c0,1,0.4,1.6,1.2,1.7c0.7-0.1,1.4-0.3,2-0.5
	c0.6-0.2,1.2-0.6,1.7-1c0.1,0.2,0.2,0.3,0.2,0.5c-0.2,0.3-0.4,0.5-0.7,0.7c-0.4,0.3-0.7,0.6-1.1,0.8c-0.4,0.3-0.8,0.5-1.2,0.7
	c-0.3,0.1-0.6,0.3-0.9,0.3c-0.6,0-1.2-0.1-1.8-0.3c-0.6-0.2-1.1-0.5-1.6-0.9c-0.5-0.3-0.9-0.7-1.2-1.2c-0.3-0.4-0.4-0.8-0.5-1.3
	c0-0.7,0.1-1.4,0.2-2.1c0.1-0.9,0.4-1.8,0.6-2.8s0.6-2.1,1-3.2s0.8-2.2,1.2-3.3L25.9-32.6z"/>
<path class="st0" d="M48.5-33.3c0.3,0,0.6,0,0.8,0.1c0.3,0.1,0.6,0.2,0.9,0.3c0.2,0.1,0.4,0.2,0.7,0.4c0.2,0.1,0.3,0.3,0.3,0.4
	c-0.5,1-0.9,2-1.3,3s-0.7,2-1,2.9c-0.3,0.8-0.5,1.7-0.7,2.6c-0.1,0.7-0.2,1.4-0.2,2.1c0,0.6,0.1,1.1,0.2,1.6
	c0.1,0.4,0.4,0.7,0.7,0.9c-0.3,0.2-0.7,0.4-1.1,0.5c-0.4,0.1-0.8,0.2-1.2,0.2c-1.3,0-1.9-0.9-1.9-2.6c0.1-1.9,0.6-3.8,1.4-5.5
	c-0.5,1-1,2-1.6,3c-0.6,0.9-1.2,1.7-1.9,2.5c-0.6,0.7-1.2,1.3-2,1.9c-0.5,0.4-1.1,0.7-1.8,0.8c-0.9,0-1.7-0.5-2.1-1.2
	c-0.6-0.9-0.9-1.9-0.8-3c0-1.4,0.3-2.9,0.8-4.2c0.6-1.4,1.3-2.8,2.2-4.1c0.8-1.2,1.8-2.2,2.9-3.1c0.8-0.8,1.9-1.2,3-1.3
	c0.3,0.1,0.6,0.2,0.8,0.4c0.3,0.2,0.6,0.5,0.8,0.7c0.3,0.3,0.5,0.6,0.7,0.9c0.2,0.2,0.3,0.5,0.3,0.8c-1.1,0.2-2.1,0.6-2.9,1.3
	c-1,0.8-2,1.8-2.7,2.8c-0.8,1.1-1.5,2.3-2,3.5c-0.5,1.1-0.8,2.3-0.8,3.5c0,0.4,0.2,0.7,0.5,0.8c0.9-0.3,1.8-0.9,2.4-1.8
	c1.2-1.5,2.3-3.1,3.3-4.8l0.8-1.4c0.3-0.5,0.6-1.1,0.9-1.6l0.9-1.7C48-32.2,48.2-32.8,48.5-33.3z"/>
<path class="st0" d="M52.1-19.8c0.1-0.7,0.3-1.6,0.6-2.7s0.6-2.3,1-3.6s0.8-2.5,1.3-3.8s0.9-2.4,1.3-3.4c0.2-0.6,0.5-1.2,0.8-1.7
	c0.2-0.4,0.5-0.7,0.8-1c0.3,0.1,0.7,0.1,1,0.3c0.3,0.1,0.7,0.3,1,0.4c0.3,0.2,0.6,0.3,0.9,0.5c0.2,0.1,0.4,0.3,0.6,0.5
	c-0.7,0.8-1.2,1.7-1.7,2.6c-0.5,1.2-1,2.4-1.4,3.6c1.3-1.1,2.4-2.2,3.4-3.3c1-1.1,1.9-2.2,2.7-3.5c0.2-0.1,0.5-0.2,0.7-0.2
	c0.3,0,0.7,0,1,0.2c0.3,0.1,0.5,0.2,0.6,0.4c-0.4,1.1-0.6,2.2-0.6,3.4c-0.1,0.8,0.1,1.6,0.5,2.3c-0.1,0.3-0.3,0.6-0.5,0.8
	c-0.3,0.4-0.6,0.8-1,1.1c-0.7-0.3-1.2-0.8-1.7-1.3c-0.5-0.6-0.9-1.2-1.1-1.9c-1,0.7-1.9,1.5-2.8,2.3c-0.8,0.7-1.4,1.6-2,2.5
	c-0.6,1-1.1,2-1.4,3.1c-0.4,1.2-0.8,2.6-1.1,4.2c-0.3,0-0.5-0.1-0.8-0.2c-0.3-0.1-0.6-0.3-0.9-0.5c-0.3-0.2-0.5-0.4-0.8-0.6
	C52.3-19.3,52.2-19.5,52.1-19.8z"/>
<path class="st0" d="M69.3-32.6c-0.2-0.3-0.3-0.6-0.3-0.9c-0.1-0.4-0.1-0.8-0.1-1.2c0.6,0.1,1.2,0.1,1.8,0.1h1.6
	c0.3-0.7,0.7-1.4,1.2-2.1c0.4-0.7,0.8-1.3,1.2-1.9c0.3-0.5,0.7-1,1.1-1.5c0.2-0.3,0.5-0.6,0.8-0.8c0.3,0,0.6,0,0.9,0.1
	c0.4,0.1,0.7,0.2,1.1,0.3c0.4,0.1,0.7,0.3,1,0.4c0.2,0.1,0.5,0.2,0.6,0.4c-0.7,0.9-1.3,1.7-1.8,2.5c-0.5,0.8-1.1,1.6-1.7,2.6H78
	c0.5,0,1,0,1.5-0.1c0.1,0.1,0.2,0.3,0.3,0.4c0.1,0.2,0.1,0.4,0.1,0.5c-1.4,0.5-2.8,0.7-4.2,0.7c-0.6,1.1-1.1,2.3-1.6,3.4
	s-0.8,2.2-1.1,3.3c-0.3,1-0.6,1.9-0.8,2.9c-0.2,0.8-0.2,1.7-0.3,2.5c0,1,0.4,1.6,1.2,1.7c0.7-0.1,1.4-0.3,2-0.5
	c0.6-0.2,1.2-0.6,1.7-1c0.1,0.2,0.2,0.3,0.3,0.5c-0.2,0.3-0.5,0.5-0.7,0.7c-0.4,0.3-0.7,0.6-1.1,0.8c-0.4,0.3-0.8,0.5-1.2,0.7
	c-0.3,0.1-0.6,0.2-0.8,0.3c-0.6,0-1.2-0.1-1.8-0.3c-0.6-0.2-1.1-0.5-1.6-0.9c-0.5-0.3-0.9-0.7-1.2-1.2c-0.3-0.4-0.5-0.8-0.5-1.3
	c0-0.7,0.1-1.4,0.2-2.1c0.2-0.9,0.4-1.8,0.7-2.8s0.6-2.1,1-3.2s0.8-2.2,1.2-3.3L69.3-32.6z"/>
<path class="st0" d="M112.6-38.6c0,1.4-0.4,2.8-1.2,3.9c-0.9,1.2-2,2.2-3.3,2.9c0.9,0.6,1.6,1.3,2.1,2.2c0.5,0.9,0.8,1.9,0.8,2.9
	c0,1.3-0.4,2.6-1.2,3.8c-0.8,1.3-1.9,2.4-3.1,3.3c-1.3,1-2.8,1.8-4.3,2.3c-1.6,0.6-3.3,0.9-5,0.9c-1.7,0-3.3-0.3-4.8-1
	c-1.3-0.7-2.5-1.7-3.2-3c0.2-0.7,0.5-1.6,0.9-2.6c0.4-1,0.8-2.2,1.3-3.3s1-2.3,1.4-3.5s0.9-2.2,1.4-3.1c0.9-2,1.7-3.7,2.4-5
	c0.6-1.1,1.3-2.2,2-3.1c-1.2,0.4-2.4,0.8-3.5,1.4c-0.8,0.4-1.6,0.9-2.3,1.5c-0.2-0.2-0.5-0.4-0.7-0.6c-0.2-0.3-0.4-0.6-0.6-0.9
	c-0.2-0.3-0.4-0.7-0.5-1c-0.1-0.3-0.2-0.6-0.2-1c0.7-0.5,1.6-0.9,2.4-1.2c1-0.4,2.1-0.7,3.2-1c1.2-0.3,2.4-0.5,3.6-0.7
	c1.2-0.2,2.3-0.2,3.5-0.2c2.3-0.1,4.7,0.5,6.7,1.7C111.8-42.2,112.7-40.4,112.6-38.6z M99.1-30.1c-0.5-0.2-0.9-0.6-1.2-1
	c-0.6,1.2-1.1,2.4-1.5,3.5s-0.9,2.2-1.3,3.2s-0.7,1.9-0.9,2.6c-0.2,0.5-0.3,1.1-0.4,1.6c0.4,0.2,0.8,0.3,1.2,0.4
	c0.6,0.1,1.1,0.2,1.7,0.2c1.6,0,3.1-0.2,4.6-0.7c1.4-0.4,2.7-1.1,3.9-1.9c1-0.7,1.9-1.6,2.7-2.6c0.6-0.9,1-2,1-3.1
	c0.1-1.4-0.7-2.8-2-3.4c-2,0.8-4.1,1.2-6.2,1.1h-0.8C99.6-30,99.3-30,99.1-30.1z M106-42.4c-0.5,0-1,0-1.6,0.1
	c-0.6,0.1-1.1,0.2-1.8,0.3c0.1,0.1,0.2,0.2,0.2,0.3c0,0.1,0.1,0.2,0.2,0.3c-0.3,0.4-0.5,0.8-0.8,1.2c-0.3,0.5-0.7,1.2-1,1.9
	c-0.3,0.7-0.8,1.5-1.2,2.4c-0.4,0.9-0.8,1.8-1.3,2.7c0.5-0.1,1-0.2,1.5-0.2c0.6-0.1,1.1-0.1,1.7-0.1c0.3,0,0.6,0,0.9,0
	s0.6,0.1,0.9,0.1c1-0.2,2.1-0.4,3.1-0.8c0.8-0.3,1.6-0.8,2.3-1.3c0.6-0.4,1.1-1,1.5-1.6c0.3-0.6,0.5-1.2,0.5-1.9
	c0.1-1-0.5-2-1.3-2.6C108.7-42.2,107.4-42.5,106-42.4z"/>
<path class="st0" d="M117.5-17.8c-1.3-0.1-2.4-0.7-3.2-1.8c-0.8-1.2-1.3-2.6-1.2-4c0-1,0.1-2,0.4-2.9c0.3-1,0.7-2,1.2-3
	c0.5-1,1.1-1.9,1.8-2.7c0.7-0.8,1.4-1.6,2.3-2.2c1-0.9,2.3-1.4,3.7-1.5c1,0.6,1.7,1.5,2.2,2.5h0.3h0.3c1.3,0,1.9,1.1,1.9,3.3
	c0,1.4-0.2,2.9-0.7,4.2c-0.5,1.3-1.1,2.5-2,3.6c-0.9,1.1-1.9,2-3.1,2.8C120.3-18.7,118.9-18.1,117.5-17.8z M119.3-29
	c-0.4,0.6-0.8,1.2-1.1,1.8c-0.3,0.6-0.7,1.3-0.9,1.9c-0.2,0.6-0.4,1.2-0.6,1.9c-0.1,0.5-0.2,1.1-0.2,1.6c0,0.6,0.1,1.1,0.3,1.6
	c0.2,0.5,0.4,0.8,0.6,0.9c1.1-0.2,2.1-0.7,2.9-1.3c0.9-0.7,1.7-1.5,2.3-2.4c0.7-1,1.2-2.1,1.5-3.3c0.4-1.3,0.6-2.6,0.6-3.9
	c0-0.5,0-1-0.1-1.5c-0.1-0.3-0.2-0.6-0.3-0.9c-1,0.3-2,0.8-2.8,1.5C120.7-30.4,120-29.7,119.3-29z"/>
<path class="st0" d="M133.1-17.8c-1.3-0.1-2.4-0.7-3.2-1.8c-0.9-1.2-1.3-2.6-1.2-4c0-1,0.1-2,0.4-2.9c0.3-1,0.7-2,1.2-3
	c0.5-1,1.1-1.9,1.8-2.7c0.7-0.8,1.4-1.6,2.3-2.2c1-0.9,2.3-1.4,3.6-1.5c1,0.6,1.7,1.5,2.2,2.5h0.3h0.3c1.3,0,1.9,1.1,1.9,3.3
	c0,1.4-0.2,2.9-0.7,4.2c-0.5,1.3-1.1,2.5-2,3.6c-0.9,1.1-1.9,2-3.1,2.8C135.9-18.7,134.5-18.1,133.1-17.8z M135-29
	c-0.4,0.6-0.8,1.2-1.1,1.8c-0.3,0.6-0.7,1.3-0.9,1.9c-0.2,0.6-0.4,1.2-0.6,1.9c-0.1,0.5-0.2,1.1-0.2,1.6c0,0.6,0.1,1.1,0.3,1.6
	c0.2,0.5,0.4,0.8,0.6,0.9c1.1-0.2,2-0.7,2.9-1.3c0.9-0.7,1.7-1.5,2.3-2.4c0.7-1,1.2-2.1,1.5-3.3c0.4-1.3,0.6-2.6,0.6-3.9
	c0-0.5,0-1-0.1-1.5c-0.1-0.3-0.2-0.6-0.4-0.9c-1,0.3-2,0.8-2.8,1.5C136.3-30.4,135.6-29.7,135-29z"/>
<path class="st0" d="M146.3-32.6c-0.2-0.3-0.3-0.6-0.3-0.9c-0.1-0.4-0.1-0.8-0.1-1.2c0.6,0.1,1.2,0.1,1.8,0.1h1.6
	c0.4-0.7,0.7-1.4,1.1-2.1c0.4-0.7,0.8-1.3,1.2-1.9c0.3-0.5,0.7-1,1.1-1.5c0.2-0.3,0.5-0.6,0.8-0.8c0.3,0,0.6,0,0.9,0.1
	c0.4,0.1,0.7,0.2,1.1,0.3c0.4,0.1,0.7,0.3,1,0.4c0.2,0.1,0.5,0.2,0.6,0.4c-0.7,0.9-1.3,1.7-1.8,2.5c-0.5,0.8-1.1,1.6-1.6,2.6h1.4
	c0.5,0,1,0,1.5-0.1c0.1,0.1,0.2,0.3,0.3,0.4c0.1,0.2,0.1,0.4,0.1,0.5c-1.4,0.5-2.8,0.7-4.2,0.7c-0.6,1.1-1.1,2.3-1.6,3.4
	s-0.9,2.2-1.2,3.3c-0.3,1-0.5,1.9-0.7,2.9c-0.2,0.8-0.3,1.7-0.3,2.5c0,1,0.4,1.6,1.2,1.7c0.7-0.1,1.4-0.3,2-0.5
	c0.6-0.2,1.2-0.6,1.7-1c0.1,0.2,0.2,0.3,0.3,0.5c-0.2,0.3-0.5,0.5-0.7,0.7c-0.4,0.3-0.7,0.6-1.1,0.8c-0.4,0.3-0.8,0.5-1.2,0.7
	c-0.3,0.1-0.6,0.2-0.9,0.3c-0.6,0-1.2-0.1-1.8-0.3c-0.6-0.2-1.1-0.5-1.6-0.9c-0.5-0.3-0.9-0.7-1.2-1.2c-0.3-0.4-0.4-0.8-0.5-1.3
	c0-0.7,0.1-1.4,0.2-2.1c0.1-0.9,0.4-1.8,0.6-2.8s0.6-2.1,1-3.2s0.8-2.2,1.2-3.3L146.3-32.6z"/>
<path class="st0" d="M168.9-33.2c0,0.5-0.1,0.9-0.2,1.4c-0.1,0.4-0.3,0.9-0.5,1.3c-0.2,0.4-0.4,0.7-0.6,1c-0.1,0.2-0.4,0.4-0.6,0.4
	c-0.3,0-0.4-0.2-0.5-0.5c0-0.1,0-0.2,0.1-0.3c0.1-0.1,0.1-0.3,0.2-0.5s0.1-0.4,0.2-0.6c0.1-0.2,0.1-0.3,0.1-0.5
	c0-0.3-0.1-0.6-0.2-0.8c-0.1-0.2-0.4-0.3-0.6-0.3c-0.9,0-1.7,0.6-2.2,1.8c-0.6,1.7-0.8,3.4-0.7,5.2c0,0.1,0,0.3,0,0.4h2.5
	c0,0.1,0,0.2,0,0.3c0,0.2,0,0.3-0.1,0.5l-1.3,0.3c-0.2,0.1-0.5,0.1-0.7,0.2c-0.1,0-0.2,0.1-0.3,0.2c0,0.1-0.1,0.2-0.1,0.3
	c0,0.2,0,0.4,0,0.6s0,0.4,0,0.7c0.1,1.7-0.5,3.4-1.6,4.8c-1.2,1.2-2.8,2-4.5,2.1c-0.3,0-0.7-0.1-1-0.3c-0.4-0.2-0.7-0.4-1-0.6
	c-0.3-0.3-0.6-0.5-0.8-0.9c-0.2-0.3-0.4-0.6-0.5-1c0-0.9,0.2-1.8,0.6-2.6c0.4-0.8,0.9-1.5,1.5-2.2c0.7-0.6,1.4-1.2,2.3-1.5
	c0.9-0.4,1.9-0.6,2.9-0.6c0-0.6-0.1-1.2-0.2-1.7c-0.1-0.6-0.2-1.1-0.4-1.6s-0.3-1.1-0.4-1.6c-0.1-0.5-0.2-1-0.2-1.5
	c0-0.7,0.1-1.3,0.4-1.9c0.2-0.6,0.6-1.2,1-1.7c0.4-0.5,0.9-1,1.5-1.4c0.5-0.4,1.1-0.6,1.8-0.8c0.4,0.1,0.7,0.4,1,0.6
	c0.5,0.4,0.9,0.7,1.3,1.2c0.4,0.4,0.8,0.8,1.1,1.3C168.5-34,168.7-33.6,168.9-33.2z M157.2-17.1c0.6-0.2,1.1-0.6,1.6-1
	c1-0.9,1.8-2,2.2-3.3c0.2-0.6,0.3-1.2,0.3-1.9c-0.6,0.1-1.1,0.3-1.6,0.7c-1.1,0.7-2.1,1.7-2.8,2.9c-0.3,0.4-0.5,0.9-0.5,1.4
	C156.5-17.8,156.8-17.3,157.2-17.1z"/>
<path class="st0" d="M171-32.6c-0.2-0.3-0.3-0.6-0.3-0.9c-0.1-0.4-0.1-0.8-0.1-1.2c0.6,0.1,1.2,0.1,1.8,0.1h1.6
	c0.4-0.7,0.7-1.4,1.1-2.1c0.4-0.7,0.8-1.3,1.2-1.9c0.3-0.5,0.7-1,1.1-1.5c0.2-0.3,0.5-0.6,0.8-0.8c0.3,0,0.6,0,0.9,0.1
	c0.4,0.1,0.7,0.2,1.1,0.3c0.4,0.1,0.7,0.3,1,0.4c0.2,0.1,0.5,0.2,0.6,0.4c-0.7,0.9-1.3,1.7-1.8,2.5c-0.5,0.8-1.1,1.6-1.6,2.6h1.4
	c0.5,0,1,0,1.5-0.1c0.1,0.1,0.2,0.3,0.3,0.4c0.1,0.2,0.1,0.4,0.1,0.5c-1.4,0.5-2.8,0.7-4.2,0.7c-0.6,1.1-1.1,2.3-1.6,3.4
	s-0.9,2.2-1.2,3.3c-0.3,1-0.5,1.9-0.7,2.9c-0.2,0.8-0.3,1.7-0.3,2.5c0,1,0.4,1.6,1.2,1.7c0.7-0.1,1.4-0.3,2-0.5
	c0.6-0.2,1.2-0.6,1.7-1c0.1,0.2,0.2,0.3,0.3,0.5c-0.2,0.3-0.5,0.5-0.7,0.7c-0.4,0.3-0.7,0.6-1.1,0.8c-0.4,0.3-0.8,0.5-1.2,0.7
	c-0.3,0.1-0.6,0.2-0.9,0.3c-0.6,0-1.2-0.1-1.8-0.3c-0.6-0.2-1.1-0.5-1.6-0.9c-0.5-0.3-0.9-0.7-1.2-1.2c-0.3-0.4-0.4-0.8-0.5-1.3
	c0-0.7,0.1-1.4,0.2-2.1c0.1-0.9,0.4-1.8,0.6-2.8s0.6-2.1,1-3.2s0.8-2.2,1.2-3.3L171-32.6z"/>
<path class="st0" d="M180.6-19.8c0.1-0.7,0.3-1.6,0.6-2.7s0.6-2.3,1-3.6s0.8-2.5,1.3-3.8s0.9-2.4,1.3-3.4c0.2-0.6,0.5-1.2,0.8-1.7
	c0.2-0.4,0.5-0.7,0.8-1c0.3,0.1,0.7,0.1,1,0.3c0.3,0.1,0.7,0.3,1,0.4c0.3,0.2,0.6,0.3,0.9,0.5c0.2,0.1,0.4,0.3,0.6,0.5
	c-0.7,0.8-1.2,1.7-1.7,2.6c-0.5,1.2-1,2.4-1.4,3.6c1.3-1.1,2.4-2.2,3.4-3.3c1-1.1,1.9-2.2,2.8-3.5c0.2-0.1,0.5-0.2,0.7-0.2
	c0.3,0,0.6,0.1,0.9,0.2c0.3,0.1,0.5,0.2,0.6,0.4c-0.4,1.1-0.6,2.2-0.6,3.4c0,0.8,0.1,1.6,0.5,2.3c-0.1,0.3-0.3,0.6-0.5,0.8
	c-0.3,0.4-0.6,0.8-1,1.1c-1.3-0.7-2.3-1.9-2.8-3.3c-1,0.7-1.9,1.5-2.8,2.3c-0.8,0.7-1.4,1.6-2,2.5c-0.6,1-1.1,2-1.4,3.1
	c-0.4,1.2-0.8,2.6-1.1,4.2c-0.3,0-0.5-0.1-0.8-0.2c-0.6-0.3-1.2-0.6-1.7-1.1C180.8-19.3,180.7-19.5,180.6-19.8z"/>
<path class="st0" d="M207.9-33.3c0.3,0,0.6,0,0.8,0.1c0.3,0.1,0.6,0.2,0.9,0.3c0.2,0.1,0.4,0.2,0.6,0.4c0.2,0.1,0.3,0.3,0.3,0.4
	c-0.5,1-0.9,2-1.3,3s-0.7,2-1,2.9c-0.3,0.8-0.5,1.7-0.6,2.6c-0.1,0.7-0.2,1.4-0.2,2.1c0,0.6,0.1,1.1,0.2,1.6
	c0.1,0.4,0.4,0.7,0.7,0.9c-0.3,0.2-0.7,0.4-1.1,0.5c-0.4,0.1-0.8,0.2-1.2,0.2c-1.3,0-1.9-0.9-1.9-2.6c0.1-1.9,0.6-3.8,1.3-5.5
	c-0.5,1-1,2-1.6,3c-0.6,0.9-1.2,1.7-1.9,2.5c-0.6,0.7-1.2,1.3-2,1.9c-0.5,0.4-1.1,0.7-1.8,0.8c-0.9,0-1.7-0.5-2.1-1.2
	c-0.6-0.9-0.9-1.9-0.8-3c0-1.4,0.3-2.9,0.9-4.2c0.6-1.4,1.3-2.8,2.2-4.1c0.8-1.2,1.8-2.2,2.9-3.1c0.8-0.8,1.9-1.2,3-1.3
	c0.3,0.1,0.6,0.2,0.8,0.4c0.3,0.2,0.6,0.5,0.9,0.7c0.3,0.3,0.5,0.6,0.7,0.9c0.2,0.2,0.3,0.5,0.3,0.8c-1.1,0.2-2.1,0.6-2.9,1.3
	c-1,0.8-2,1.8-2.7,2.8c-0.8,1.1-1.5,2.3-2,3.5c-0.5,1.1-0.8,2.3-0.8,3.5c0,0.4,0.2,0.7,0.5,0.8c0.9-0.3,1.8-0.9,2.4-1.8
	c1.2-1.5,2.3-3.1,3.3-4.8l0.8-1.4c0.3-0.5,0.6-1.1,0.9-1.6l0.9-1.7C207.3-32.2,207.6-32.8,207.9-33.3z"/>
<path class="st0" d="M201.5-8.5c-0.3-0.1-0.5-0.4-0.5-1c-0.1-0.3-0.2-0.7-0.2-1.1c0-0.4,0-0.9,0-1.4c0-0.6,0.1-1.3,0.2-1.9
	c0.2-0.8,0.4-1.8,0.7-2.8c0.3-1,0.6-2.2,1-3.4c0.4-1.2,0.9-2.4,1.4-3.7c0.6-1.6,1.1-2.9,1.6-4.1s0.8-2.1,1.1-3
	c0.3-0.8,0.6-1.5,0.7-2.1c0.2-0.5,0.3-1,0.5-1.4c0.1-0.3,0.2-0.6,0.4-1c0.2-0.4,0.4-0.8,0.6-1.2c0.2-0.4,0.5-0.8,0.7-1.1
	c0.2-0.3,0.4-0.6,0.7-0.8c0.8,0.1,1.5,0.3,2.2,0.6c0.5,0.2,0.9,0.5,1.3,0.8c-0.4,0.4-0.8,0.9-1.1,1.4c-0.4,0.7-0.8,1.3-1.2,2
	c-0.4,0.7-0.7,1.5-1.1,2.3c-0.3,0.7-0.5,1.3-0.7,2c0.3-0.4,0.6-0.9,0.9-1.3c0.4-0.5,1-1.1,1.7-1.9c0.7-0.7,1.5-1.4,2.4-2
	c0.6-0.4,1.2-0.6,1.9-0.7c0.8,0,1.5,0.2,2.1,0.7c0.5,0.4,0.9,1.1,0.8,1.8c0,1.7-0.3,3.3-0.8,4.9c-0.5,1.6-1.3,3-2.3,4.3
	c-0.4,0.5-0.8,1-1.3,1.4c-0.5,0.4-1.1,0.8-1.6,1.2c-0.5,0.3-1.1,0.6-1.7,0.8c-0.5,0.2-1,0.3-1.5,0.3c-0.4,0-0.7-0.1-1.1-0.3
	c-0.3-0.1-0.5-0.4-0.6-0.6c1-0.6,1.8-1.3,2.6-2.2c0.9-1,1.7-2.1,2.3-3.2c0.7-1.3,1.4-2.6,1.9-3.9c0.5-1.4,0.9-2.8,1.2-4.3
	c-0.8,0.4-1.6,0.9-2.3,1.5c-0.8,0.6-1.5,1.3-2.1,2.1c-0.8,1-1.5,1.8-1.9,2.4c-0.5,0.6-0.9,1.1-1.2,1.6c-0.3,0.4-0.5,0.8-0.7,1.2
	c-0.2,0.4-0.4,0.8-0.6,1.4c-0.3,0.7-0.7,1.7-1.1,2.9c-0.4,1.2-0.9,2.5-1.3,4c-0.4,1.5-0.9,3-1.3,4.7c-0.4,1.7-0.9,3.3-1.3,5
	c-0.3-0.1-0.5-0.3-0.6-0.5c-0.2-0.2-0.3-0.3-0.4-0.4C201.8-8.4,201.7-8.5,201.5-8.5z"/>
<g>
	<text transform="matrix(1 0 0 1 34.1489 29.9951)" class="st0 st1 st2 st3"> ERINNEAR</text>
</g>
<path class="st0" d="M36.7,55.2c-18.2,0-32.9,14.7-32.9,32.9S18.5,121,36.7,121s32.9-14.7,32.9-32.9S54.9,55.2,36.7,55.2z
	 M36.7,118.3c-16.7,0-30.2-13.5-30.2-30.2c0-16.7,13.5-30.2,30.2-30.2c16.7,0,30.2,13.5,30.2,30.2C66.9,104.8,53.4,118.3,36.7,118.3
	z"/>
<text transform="matrix(1 0 0 1 9.194 18.524)"><tspan x="0" y="0" class="st4 st1 st5 st6">E</tspan><tspan x="8.2" y="0" class="st4 st1 st5 st7">R </tspan><tspan x="0" y="7.9" class="st4 st1 st5 st8">N</tspan><tspan x="8.2" y="7.9" class="st4 st1 st5 st7">R</tspan></text>
<path class="st0" d="M16.2,4.1c-8.3,0-15.1,6.8-15.1,15.1c0,8.3,6.8,15.1,15.1,15.1s15.1-6.8,15.1-15.1C31.3,10.9,24.6,4.1,16.2,4.1
	z M16.2,31.4C9.6,31.4,4.1,26,4.1,19.3c0-6.7,5.4-12.1,12.1-12.1c6.7,0,12.1,5.4,12.1,12.1C28.4,26,22.9,31.4,16.2,31.4z"/>
</svg>
